<svg version="1.1" id="Layer_1" xmlns="http://www.w3.org/2000/svg" xmlns:xlink="http://www.w3.org/1999/xlink" x="0px" y="0px"
	 width="100%" viewBox="0 0 500 500" enable-background="new 0 0 500 500" xml:space="preserve">
<path fill="#FFFFFF" opacity="1.000000" stroke="none" 
	d="
M296.000000,501.000000 
	C197.333359,501.000000 99.166710,501.000000 1.000053,501.000000 
	C1.000035,334.333405 1.000035,167.666794 1.000018,1.000142 
	C167.666565,1.000095 334.333130,1.000095 500.999756,1.000047 
	C500.999847,167.666519 500.999847,334.333038 500.999939,500.999786 
	C432.833344,501.000000 364.666656,501.000000 296.000000,501.000000 
M300.862640,160.040268 
	C301.747345,159.681168 302.815521,159.529068 303.489319,158.931961 
	C313.778351,149.813919 314.309875,127.568710 304.406830,117.925957 
	C303.347382,116.894333 301.579956,116.589813 299.819000,115.314766 
	C290.403107,108.766869 279.246826,107.476471 268.506744,104.908401 
	C266.322754,104.386185 264.210968,103.561966 261.857910,102.211876 
	C256.227051,96.080872 256.098816,92.521744 261.879303,84.585121 
	C273.205048,80.666252 283.038513,83.777222 291.859039,91.011177 
	C291.859039,91.011177 291.922546,91.272499 291.922546,91.272499 
	C291.922546,91.272499 292.024384,91.143524 293.011017,91.158707 
	C293.994141,91.109573 294.977295,91.060432 296.446777,91.325310 
	C300.301178,87.125992 304.155609,82.926666 308.781677,77.886620 
	C305.558228,76.055923 303.359192,74.807030 300.608887,73.025772 
	C283.442200,63.416050 265.618164,62.595142 247.711319,70.180710 
	C238.028000,74.282684 233.153305,82.510849 232.812408,93.144279 
	C232.469482,103.840721 236.447342,112.458145 245.964432,117.700951 
	C250.217880,120.044106 255.044693,121.445679 259.732819,122.876488 
	C266.213989,124.854538 272.918152,126.139420 279.320770,128.324875 
	C284.039795,129.935654 286.227234,133.962997 285.993469,138.963959 
	C285.769135,143.763870 283.876923,147.573257 279.068146,149.529877 
	C272.090729,152.368866 265.533295,150.881424 258.788605,147.303162 
	C255.520599,144.337006 252.302002,141.313095 248.949631,138.445572 
	C248.118301,137.734482 246.853592,137.530060 245.071472,136.856293 
	C243.340851,137.110291 241.146606,136.772888 239.951401,137.709854 
	C228.206207,146.917389 228.665649,154.210907 241.731979,161.516388 
	C255.974075,169.479233 271.388397,170.486313 286.971710,166.960037 
	C291.643188,165.902969 295.766327,162.422455 300.862640,160.040268 
M172.305756,128.909729 
	C177.992294,135.811813 183.662872,142.727127 189.370316,149.611893 
	C194.118225,155.339203 197.864868,163.300446 203.970367,166.110123 
	C210.287430,169.017181 218.912506,166.912964 226.528152,166.987061 
	C227.187881,166.993484 227.848587,166.897095 229.188339,166.975769 
	C229.726929,166.292938 230.865997,165.289734 230.701752,164.981888 
	C229.928467,163.532547 228.824829,162.252350 227.790329,160.950562 
	C215.482727,145.462967 203.166428,129.982300 190.667343,114.267136 
	C194.336044,109.688187 197.842010,105.279358 201.383316,100.899109 
	C209.440308,90.933418 217.547897,81.008270 225.538956,70.990112 
	C226.511902,69.770355 230.054367,67.451714 223.903885,67.042297 
	C218.085419,67.029045 212.257019,67.216263 206.452148,66.928551 
	C202.879166,66.751472 200.709427,68.173210 198.538284,70.863800 
	C189.671951,81.851402 180.572968,92.651260 171.668747,102.312759 
	C171.675964,91.852394 171.712112,81.391884 171.662354,70.931786 
	C171.653931,69.158798 172.511337,66.488380 168.022995,67.034943 
	C160.948761,67.034943 153.874512,67.034943 146.722794,67.034943 
	C146.722794,100.710571 146.722794,133.675751 146.722794,166.855942 
	C154.364700,166.855942 161.658890,166.855942 169.774994,166.994141 
	C170.413361,165.911255 171.597229,164.832916 171.606323,163.744781 
	C171.704956,151.928711 171.619278,140.111099 172.305756,128.909729 
M306.288452,195.921280 
	C303.032288,195.921280 299.776154,195.921280 296.548706,195.921280 
	C296.223419,200.433228 298.416992,201.049728 308.326416,199.352402 
	C307.956451,198.201828 307.597290,197.084869 306.288452,195.921280 
M283.686401,195.918457 
	C280.551422,195.653381 278.959869,196.492188 280.650879,199.833939 
	C292.116425,200.261505 292.116425,200.261505 291.431396,195.918243 
	C289.185455,195.918243 286.902283,195.918243 283.686401,195.918457 
M264.052704,197.474655 
	C266.398010,203.032288 271.107391,198.590439 274.513367,199.790100 
	C274.770508,199.880661 275.799042,197.781143 277.167664,195.571854 
	C271.810944,195.972336 267.968475,196.259598 264.052704,197.474655 
M258.251587,199.956757 
	C258.995209,198.857788 259.738800,197.758804 260.814178,196.169495 
	C255.724808,196.169495 252.008026,196.169495 248.291245,196.169495 
	C248.031174,196.591156 247.771103,197.012833 247.511017,197.434494 
	C248.645691,198.276199 249.684647,199.602722 250.936661,199.849869 
	C252.990936,200.255371 255.183517,199.960205 258.251587,199.956757 
M237.565918,195.918198 
	C235.804291,195.918198 234.042679,195.918198 231.404800,195.918198 
	C233.618271,202.599930 238.614166,198.912811 241.869644,199.787979 
	C242.420654,199.936127 243.574646,197.841385 245.165207,195.918182 
	C241.763840,195.918182 240.133545,195.918182 237.565918,195.918198 
M216.128662,196.532898 
	C217.036743,203.766235 222.565536,198.281937 225.601624,199.796631 
	C226.039642,200.015121 227.569794,198.044495 228.594543,197.086929 
	C228.277161,196.727081 227.959793,196.367233 227.642410,196.007385 
	C224.057755,196.007385 220.473083,196.007385 216.128662,196.532898 
M212.005478,196.520081 
	C208.166641,196.251068 204.327820,195.982056 200.488983,195.713028 
	C200.173691,196.204437 199.858383,196.695847 199.543091,197.187256 
	C200.598480,198.111176 201.550278,199.628159 202.731033,199.834396 
	C205.119797,200.251617 207.657318,200.151276 210.079880,199.843048 
	C210.835220,199.746933 211.418213,198.296432 212.005478,196.520081 
M185.847595,199.952301 
	C188.146622,199.955093 190.458405,199.805634 192.741638,199.996857 
	C196.049271,200.273880 196.608261,198.860107 195.758179,196.165756 
	C191.744888,196.165756 188.028152,196.165756 183.694717,196.165756 
	C184.186050,197.647507 184.554230,198.757828 185.847595,199.952301 
M174.498657,195.918182 
	C172.412582,195.918182 170.326523,195.918182 167.672165,195.918182 
	C168.827179,202.585648 173.588409,199.113022 176.413162,199.867752 
	C178.976700,200.552689 181.042572,199.790573 179.636856,195.918182 
	C178.329544,195.918182 176.891891,195.918182 174.498657,195.918182 
M158.498749,199.960892 
	C160.703461,199.375626 165.387451,201.791321 163.639740,196.226074 
	C159.569778,196.226074 155.851578,196.226074 152.112167,196.226074 
	C152.480682,199.942062 152.480682,199.942062 158.498749,199.960892 
M141.574692,199.960876 
	C143.744400,198.965500 148.585159,202.347168 147.965958,196.097473 
	C143.930267,196.097473 140.215683,196.097473 136.512863,196.097473 
	C136.278122,199.842926 136.278122,199.842926 141.574692,199.960876 
z"/>
<path fill="#5272FF" opacity="1.000000" stroke="none" 
	d="
M168.953079,166.855942 
	C161.658890,166.855942 154.364700,166.855942 146.722794,166.855942 
	C146.722794,133.675751 146.722794,100.710571 146.722794,67.034943 
	C153.874512,67.034943 160.948761,67.034943 168.487610,67.555206 
	C168.952240,80.565079 168.952240,93.054695 168.952240,106.521576 
	C170.294495,104.976562 170.927094,104.248421 171.559662,103.520279 
	C180.572968,92.651260 189.671951,81.851402 198.538284,70.863800 
	C200.709427,68.173210 202.879166,66.751472 206.452148,66.928551 
	C212.257019,67.216263 218.085419,67.029045 224.349060,67.434860 
	C221.595215,72.037086 218.483643,76.316750 215.180405,80.442978 
	C206.164200,91.705582 197.067154,102.903458 187.913971,114.236115 
	C198.584061,127.651550 209.086121,140.733276 219.432800,153.936752 
	C222.673340,158.072037 225.495300,162.535309 228.508850,166.848480 
	C227.848587,166.897095 227.187881,166.993484 226.528152,166.987061 
	C218.912506,166.912964 210.287430,169.017181 203.970367,166.110123 
	C197.864868,163.300446 194.118225,155.339203 189.370316,149.611893 
	C183.662872,142.727127 177.992294,135.811813 171.851746,128.519073 
	C170.802643,127.359795 170.207581,126.591148 168.953079,124.970726 
	C168.953079,139.587051 168.953079,153.221497 168.953079,166.855942 
z"/>
<path fill="#5272FF" opacity="1.000000" stroke="none" 
	d="
M262.065918,102.876976 
	C264.210968,103.561966 266.322754,104.386185 268.506744,104.908401 
	C279.246826,107.476471 290.403107,108.766869 300.013611,115.967552 
	C302.821198,121.116516 306.494720,125.319931 307.833099,130.167999 
	C310.903687,141.290482 307.860229,151.413528 300.140656,160.052185 
	C295.766327,162.422455 291.643188,165.902969 286.971710,166.960037 
	C271.388397,170.486313 255.974075,169.479233 241.731979,161.516388 
	C228.665649,154.210907 228.206207,146.917389 239.951401,137.709854 
	C241.146606,136.772888 243.340851,137.110291 245.496796,137.256729 
	C249.392700,142.240738 253.005615,146.641922 259.062195,147.911880 
	C265.533295,150.881424 272.090729,152.368866 279.068146,149.529877 
	C283.876923,147.573257 285.769135,143.763870 285.993469,138.963959 
	C286.227234,133.962997 284.039795,129.935654 279.320770,128.324875 
	C272.918152,126.139420 266.213989,124.854538 259.732819,122.876488 
	C255.044693,121.445679 250.217880,120.044106 245.964432,117.700951 
	C236.447342,112.458145 232.469482,103.840721 232.812408,93.144279 
	C233.153305,82.510849 238.028000,74.282684 247.711319,70.180710 
	C265.618164,62.595142 283.442200,63.416050 300.866150,73.590729 
	C302.821350,75.077110 304.519287,75.998520 305.839600,76.715012 
	C301.737427,82.651299 298.848907,86.831291 295.960419,91.011292 
	C294.977295,91.060432 293.994141,91.109573 292.515320,91.109970 
	C292.019653,91.061234 292.003448,90.979736 292.003448,90.979736 
	C283.038513,83.777222 273.205048,80.666252 261.178101,84.737335 
	C256.157379,86.661118 254.536118,90.082932 255.005920,94.478416 
	C255.462555,98.750748 257.377686,102.042587 262.065918,102.876976 
z"/>
<path fill="#F517FF" opacity="1.000000" stroke="none" 
	d="
M228.848602,166.912109 
	C225.495300,162.535309 222.673340,158.072037 219.432800,153.936752 
	C209.086121,140.733276 198.584061,127.651550 187.913971,114.236115 
	C197.067154,102.903458 206.164200,91.705582 215.180405,80.442978 
	C218.483643,76.316750 221.595215,72.037086 224.802567,67.491867 
	C230.054367,67.451714 226.511902,69.770355 225.538956,70.990112 
	C217.547897,81.008270 209.440308,90.933418 201.383316,100.899109 
	C197.842010,105.279358 194.336044,109.688187 190.667343,114.267136 
	C203.166428,129.982300 215.482727,145.462967 227.790329,160.950562 
	C228.824829,162.252350 229.928467,163.532547 230.701752,164.981888 
	C230.865997,165.289734 229.726929,166.292938 228.848602,166.912109 
z"/>
<path fill="#F517FF" opacity="1.000000" stroke="none" 
	d="
M300.501648,160.046234 
	C307.860229,151.413528 310.903687,141.290482 307.833099,130.167999 
	C306.494720,125.319931 302.821198,121.116516 300.174561,116.284172 
	C301.579956,116.589813 303.347382,116.894333 304.406830,117.925957 
	C314.309875,127.568710 313.778351,149.813919 303.489319,158.931961 
	C302.815521,159.529068 301.747345,159.681168 300.501648,160.046234 
z"/>
<path fill="#F517FF" opacity="1.000000" stroke="none" 
	d="
M169.364044,166.925049 
	C168.953079,153.221497 168.953079,139.587051 168.953079,124.970726 
	C170.207581,126.591148 170.802643,127.359795 171.490799,128.211182 
	C171.619278,140.111099 171.704956,151.928711 171.606323,163.744781 
	C171.597229,164.832916 170.413361,165.911255 169.364044,166.925049 
z"/>
<path fill="#F517FF" opacity="1.000000" stroke="none" 
	d="
M171.614212,102.916519 
	C170.927094,104.248421 170.294495,104.976562 168.952240,106.521576 
	C168.952240,93.054695 168.952240,80.565079 168.948959,67.618301 
	C172.511337,66.488380 171.653931,69.158798 171.662354,70.931786 
	C171.712112,81.391884 171.675964,91.852394 171.614212,102.916519 
z"/>
<path fill="#F517FF" opacity="1.000000" stroke="none" 
	d="
M296.203613,91.168304 
	C298.848907,86.831291 301.737427,82.651299 305.839600,76.715012 
	C304.519287,75.998520 302.821350,75.077110 301.141785,73.856918 
	C303.359192,74.807030 305.558228,76.055923 308.781677,77.886620 
	C304.155609,82.926666 300.301178,87.125992 296.203613,91.168304 
z"/>
<path fill="#F517FF" opacity="1.000000" stroke="none" 
	d="
M261.961914,102.544426 
	C257.377686,102.042587 255.462555,98.750748 255.005920,94.478416 
	C254.536118,90.082932 256.157379,86.661118 260.856995,84.935196 
	C256.098816,92.521744 256.227051,96.080872 261.961914,102.544426 
z"/>
<path fill="#090909" opacity="1.000000" stroke="none" 
	d="
M306.763306,195.944595 
	C307.597290,197.084869 307.956451,198.201828 308.326416,199.352402 
	C298.416992,201.049728 296.223419,200.433228 296.548706,195.921280 
	C299.776154,195.921280 303.032288,195.921280 306.763306,195.944595 
z"/>
<path fill="#090909" opacity="1.000000" stroke="none" 
	d="
M284.152740,195.918350 
	C286.902283,195.918243 289.185455,195.918243 291.431396,195.918243 
	C292.116425,200.261505 292.116425,200.261505 280.650879,199.833939 
	C278.959869,196.492188 280.551422,195.653381 284.152740,195.918350 
z"/>
<path fill="#090909" opacity="1.000000" stroke="none" 
	d="
M264.089355,197.010773 
	C267.968475,196.259598 271.810944,195.972336 277.167664,195.571854 
	C275.799042,197.781143 274.770508,199.880661 274.513367,199.790100 
	C271.107391,198.590439 266.398010,203.032288 264.089355,197.010773 
z"/>
<path fill="#090909" opacity="1.000000" stroke="none" 
	d="
M257.784668,199.958649 
	C255.183517,199.960205 252.990936,200.255371 250.936661,199.849869 
	C249.684647,199.602722 248.645691,198.276199 247.511017,197.434494 
	C247.771103,197.012833 248.031174,196.591156 248.291245,196.169495 
	C252.008026,196.169495 255.724808,196.169495 260.814178,196.169495 
	C259.738800,197.758804 258.995209,198.857788 257.784668,199.958649 
z"/>
<path fill="#090909" opacity="1.000000" stroke="none" 
	d="
M238.034592,195.918182 
	C240.133545,195.918182 241.763840,195.918182 245.165207,195.918182 
	C243.574646,197.841385 242.420654,199.936127 241.869644,199.787979 
	C238.614166,198.912811 233.618271,202.599930 231.404800,195.918198 
	C234.042679,195.918198 235.804291,195.918198 238.034592,195.918182 
z"/>
<path fill="#090909" opacity="1.000000" stroke="none" 
	d="
M216.508545,196.270142 
	C220.473083,196.007385 224.057755,196.007385 227.642410,196.007385 
	C227.959793,196.367233 228.277161,196.727081 228.594543,197.086929 
	C227.569794,198.044495 226.039642,200.015121 225.601624,199.796631 
	C222.565536,198.281937 217.036743,203.766235 216.508545,196.270142 
z"/>
<path fill="#090909" opacity="1.000000" stroke="none" 
	d="
M212.042786,196.993011 
	C211.418213,198.296432 210.835220,199.746933 210.079880,199.843048 
	C207.657318,200.151276 205.119797,200.251617 202.731033,199.834396 
	C201.550278,199.628159 200.598480,198.111176 199.543091,197.187256 
	C199.858383,196.695847 200.173691,196.204437 200.488983,195.713028 
	C204.327820,195.982056 208.166641,196.251068 212.042786,196.993011 
z"/>
<path fill="#090909" opacity="1.000000" stroke="none" 
	d="
M185.384995,199.910217 
	C184.554230,198.757828 184.186050,197.647507 183.694717,196.165756 
	C188.028152,196.165756 191.744888,196.165756 195.758179,196.165756 
	C196.608261,198.860107 196.049271,200.273880 192.741638,199.996857 
	C190.458405,199.805634 188.146622,199.955093 185.384995,199.910217 
z"/>
<path fill="#090909" opacity="1.000000" stroke="none" 
	d="
M174.976440,195.918182 
	C176.891891,195.918182 178.329544,195.918182 179.636856,195.918182 
	C181.042572,199.790573 178.976700,200.552689 176.413162,199.867752 
	C173.588409,199.113022 168.827179,202.585648 167.672165,195.918182 
	C170.326523,195.918182 172.412582,195.918182 174.976440,195.918182 
z"/>
<path fill="#090909" opacity="1.000000" stroke="none" 
	d="
M158.034592,199.960876 
	C152.480682,199.942062 152.480682,199.942062 152.112167,196.226074 
	C155.851578,196.226074 159.569778,196.226074 163.639740,196.226074 
	C165.387451,201.791321 160.703461,199.375626 158.034592,199.960876 
z"/>
<path fill="#090909" opacity="1.000000" stroke="none" 
	d="
M141.103333,199.960846 
	C136.278122,199.842926 136.278122,199.842926 136.512863,196.097473 
	C140.215683,196.097473 143.930267,196.097473 147.965958,196.097473 
	C148.585159,202.347168 143.744400,198.965500 141.103333,199.960846 
z"/>
<path fill="#F517FF" opacity="1.000000" stroke="none" 
	d="
M258.925415,147.607513 
	C253.005615,146.641922 249.392700,142.240738 245.855103,137.374954 
	C246.853592,137.530060 248.118301,137.734482 248.949631,138.445572 
	C252.302002,141.313095 255.520599,144.337006 258.925415,147.607513 
z"/>
<path fill="#F517FF" opacity="1.000000" stroke="none" 
	d="
M291.931244,90.995453 
	C292.003448,90.979736 292.019653,91.061234 292.022034,91.102379 
	C292.024384,91.143524 291.922546,91.272499 291.922546,91.272499 
	C291.922546,91.272499 291.859039,91.011177 291.931244,90.995453 
z"/>
</svg>